<svg width="50" height="50" viewBox="0 0 77 63" fill="none" xmlns="http://www.w3.org/2000/svg">
<path fill-rule="evenodd" clip-rule="evenodd" d="M45.5 38.5C45.5 42.3499 42.35 45.4999 38.5001 45.4999C34.65 45.4999 31.5 42.3499 31.5 38.5C31.5 34.6499 34.65 31.4999 38.5001 31.4999C42.35 31.4999 45.5 34.6499 45.5 38.5ZM26.25 63V61.2499C26.25 55.3001 31.29 50.7499 38.5001 50.7499C45.71 50.7499 50.75 55.3001 50.75 61.2499V63H26.25ZM21 38.5C21 28.84 28.8401 20.9999 38.5001 20.9999C48.1601 20.9999 56 28.84 56 38.5C56 41.685 55.0901 44.625 53.585 47.215L58.1701 49.875C60.095 46.515 61.25 42.6649 61.25 38.5C61.25 25.9698 51.0301 15.7499 38.5001 15.7499C25.9699 15.7499 15.75 25.9698 15.75 38.5C15.75 42.63 16.87 46.515 18.83 49.875L23.415 47.215C21.9101 44.625 21 41.685 21 38.5Z" fill="#72767D"/>
<path d="M38.5001 5.25001C20.125 5.25001 5.25001 20.1251 5.25001 38.5002C5.25001 44.555 6.89502 50.225 9.69503 55.0902L5.18003 57.7152C1.92502 52.0801 0 45.5 0 38.5002C0 17.2549 17.255 0 38.5001 0C59.7451 0 77 17.2549 77 38.5002C77 45.5 75.0751 52.0801 71.7852 57.7501L67.2702 55.1251C70.1052 50.225 71.75 44.555 71.75 38.5002C71.75 20.1251 56.8751 5.25001 38.5001 5.25001Z" fill="#72767D"/>
</svg>
