<svg width="20" height="20" viewBox="0 0 30 30" fill="none" xmlns="http://www.w3.org/2000/svg">
<path d="M15.5452 15.9655L3.29721 17.1496L0.0742027 27.4574C-0.117971 28.0669 0.0705423 28.733 0.555528 29.1504C1.03868 29.5676 1.72503 29.6554 2.29974 29.3755L29.1416 16.3774C29.667 16.1211 30 15.5885 30 15.0047C30 14.4209 29.6668 13.8883 29.1416 13.632L2.31802 0.624573C1.74332 0.34455 1.057 0.4324 0.573801 0.849691C0.0887742 1.26698 -0.0997173 1.93135 0.0924755 2.54082L3.31547 12.8486L15.5396 14.0345C16.0337 14.0839 16.4107 14.4994 16.4107 14.9954C16.4107 15.4914 16.0337 15.9068 15.5396 15.9563L15.5452 15.9655Z" fill="#949CF7"/>
</svg>
